<svg xmlns="http://www.w3.org/2000/svg" viewBox="0 0 396.63 215.16"><defs><style>.a{fill:#232323;}</style></defs><title>sm_personal_logo</title><polygon class="a" points="62.78 0 0 108.73 125.55 108.73 62.78 0"/><polygon class="a" points="365.32 96.83 334 151.08 396.63 151.08 365.32 96.83"/><polygon class="a" points="293.15 115.89 272.83 151.08 313.47 151.08 293.15 115.89"/><polygon class="a" points="191.65 92.55 171.33 127.74 211.97 127.74 191.65 92.55"/><polygon class="a" points="182.48 37.44 162.17 72.63 202.8 72.63 182.48 37.44"/><polygon class="a" points="321.98 215.16 353.3 160.91 290.67 160.91 321.98 215.16"/><polygon class="a" points="153.98 135.85 185.3 81.61 122.67 81.61 153.98 135.85"/><polygon class="a" points="247.88 167.21 297.3 81.61 198.46 81.61 247.88 167.21"/></svg>